<svg xmlns="http://www.w3.org/2000/svg" width="124" height="22" viewBox="0 0 124 22">
    <path fill="#7966FF" fill-rule="evenodd" d="M2.415 0a2.388 2.388 0 0 1 2.414 2.4v15.237h8.938c1.223 0 2.195.966 2.195 2.181A2.175 2.175 0 0 1 13.767 22H2.415A2.388 2.388 0 0 1 0 19.6V2.4C0 1.06 1.066 0 2.415 0zm26.55 0c6.95 0 11.939 4.892 11.939 10.94V11c0 6.047-5.053 11-12.004 11-6.952 0-11.94-4.892-11.94-10.94V11c0-6.047 5.053-11 12.004-11zm31.45 0c1.528 0 2.437 1 2.437 2.274 0 .637-.325 1.213-.65 1.637l-7.34 9.248v6.506c0 1.304-1.105 2.335-2.501 2.335-1.397 0-2.501-1.03-2.501-2.335V13.25L42.518 3.94c-.357-.454-.617-1-.617-1.667 0-1.243 1.105-2.244 2.501-2.244 1.137 0 1.852.576 2.47 1.425l5.52 7.428 5.62-7.488C58.63.545 59.377 0 60.416 0zm13.982 0c3.14 0 5.262.85 6.996 2.157.478.365.897 1.034.897 1.854a2.264 2.264 0 0 1-2.272 2.28c-.628 0-1.047-.244-1.376-.457-1.285-.972-2.63-1.52-4.275-1.52-3.528 0-6.07 2.979-6.07 6.625V11c0 3.646 2.482 6.685 6.07 6.685 1.943 0 3.229-.608 4.545-1.671a2.132 2.132 0 0 1 1.375-.517c1.166 0 2.152.973 2.152 2.158 0 .729-.358 1.306-.777 1.67C79.78 20.998 77.566 22 74.217 22c-6.158 0-10.733-4.831-10.733-10.94V11c0-6.047 4.485-11 10.913-11zm28.213 0c1.337 0 2.393 1.043 2.393 2.363v9.941c0 6.505-3.698 9.696-9.54 9.696-5.842 0-9.415-3.222-9.415-9.543V2.364C86.048 1.043 87.104 0 88.44 0c1.336 0 2.393 1.043 2.393 2.363v9.972c0 3.498 1.771 5.308 4.692 5.308 2.921 0 4.693-1.749 4.693-5.155V2.363c0-1.32 1.056-2.363 2.392-2.363zm13.22 0c2.471 0 4.623.672 6.454 1.895.495.305.989.947.989 1.863 0 1.223-.93 2.17-2.093 2.17a2.07 2.07 0 0 1-1.134-.336c-1.483-.917-2.879-1.437-4.274-1.437-1.716 0-2.617.826-2.617 1.864v.062c0 1.405.872 1.864 4.39 2.81 4.129 1.131 6.455 2.69 6.455 6.417v.061c0 4.248-3.082 6.631-7.473 6.631-2.674 0-5.378-.856-7.646-2.567-.495-.366-.843-1.039-.843-1.772 0-1.222.93-2.17 2.093-2.17.582 0 .989.214 1.28.428 1.54 1.192 3.227 1.925 5.204 1.925 1.832 0 2.936-.763 2.936-2.016v-.061c0-1.192-.697-1.803-4.1-2.72-4.099-1.1-6.745-2.291-6.745-6.539v-.06c0-3.881 2.966-6.448 7.124-6.448zM28.9 4.315c-3.991 0-6.758 2.978-6.758 6.624V11c0 3.646 2.832 6.685 6.822 6.685s6.759-2.978 6.759-6.624V11c0-3.646-2.833-6.685-6.823-6.685z"/>
</svg>
